<svg width="3464" height="3862" viewBox="0 0 3464 3862" fill="none" xmlns="http://www.w3.org/2000/svg">
<path d="M0 1190.8C0 1030.04 85.7674 881.481 224.995 801.095L1507 60.9104C1646.23 -19.4782 1817.77 -19.4781 1957 60.9105L3239.01 801.095C3378.23 881.481 3464 1030.04 3464 1190.8V1931H3014V1422.02C3014 1257.94 2924.69 1106.86 2780.93 1027.76L1948.93 569.965C1813.86 495.642 1650.14 495.642 1515.07 569.965L683.066 1027.76C539.309 1106.86 450 1257.94 450 1422.02V2439.98C450 2604.06 539.309 2755.14 683.066 2834.24L1515.07 3292.04C1650.14 3366.36 1813.86 3366.36 1948.93 3292.04L2780.93 2834.24C2924.69 2755.14 3014 2604.06 3014 2439.98V1931H3464V2671.2C3464 2831.96 3378.23 2980.52 3239 3060.9L1957 3801.09C1817.77 3881.48 1646.23 3881.48 1507 3801.09L224.995 3060.9C85.7672 2980.52 0 2831.96 0 2671.2V1190.8Z" fill="#2563EB"/>
</svg>
